<svg width="500" height="380" viewBox="0 0 500 380" fill="none" xmlns="http://www.w3.org/2000/svg">
<circle cx="250" cy="190" r="150" fill="#EEF4FF"/>
<rect x="195" y="120" width="110" height="130" rx="40" fill="white"/>
<rect x="200" y="125" width="100" height="120" rx="40" fill="#2A477D"/>
<rect x="200" y="145" width="100" height="100" rx="40" fill="#5586E0"/>
<ellipse cx="228" cy="195" rx="10" ry="5" fill="#EA97B3"/>
<ellipse cx="268" cy="197" rx="10" ry="5" fill="#EA97B3"/>
<path d="M228 185C228 188.715 231.464 191.354 234.931 191.354C238.437 191.354 240.282 190.472 241.863 187.31" stroke="black" stroke-width="3" stroke-linecap="round"/>
<path d="M254 188C254 191.715 257.464 194.354 260.931 194.354C264.437 194.354 266.282 193.472 267.863 190.31" stroke="black" stroke-width="3" stroke-linecap="round"/>
<path d="M246.931 198.854C245.404 198.854 243.988 198.488 243.003 197.825C242.506 197.491 242.109 197.079 241.849 196.567L252.12 196.934C251.87 197.336 251.5 197.666 251.024 197.944C250.003 198.54 248.527 198.854 246.931 198.854Z" stroke="black" stroke-width="3" stroke-linecap="round"/>
<path d="M289.102 156.474C286.668 166.816 276.458 162.392 263.309 159.297C250.159 156.202 239.048 155.609 241.482 145.267C243.916 134.924 256.549 129.049 269.699 132.144C282.849 135.239 291.536 146.131 289.102 156.474Z" fill="#D9D9D9"/>
<path d="M249.87 156.134C255.598 157.482 257.566 160.342 260 150C262.434 139.658 272.728 132.848 267 131.5C261.272 130.152 244 132.5 241.482 145.267C239.048 155.609 244.142 154.786 249.87 156.134Z" fill="#E54B32"/>
<path d="M260.431 158.604C266.158 159.952 271.566 163.342 274 153C276.434 142.658 275.728 133.348 270 132C264.272 130.652 254.561 134.97 252.043 147.737C249.609 158.079 254.703 157.256 260.431 158.604Z" fill="#F4D376"/>
<path d="M275.5 162C281.228 163.348 286.566 166.842 289 156.5C292.295 142.5 278.228 134.348 272.5 133C266.772 131.652 272.518 139.733 270 152.5C267.566 162.842 269.772 160.652 275.5 162Z" fill="#EA97B3"/>
<path d="M279.721 161.996C278.906 165.461 270.486 161.382 259.4 158.773C248.314 156.164 235.584 156.238 236.4 152.773C237.215 149.308 249.314 148.664 260.4 151.273C271.486 153.882 280.537 158.53 279.721 161.996Z" fill="#8FCE5D"/>
<path d="M268.05 131.331C267.774 132.505 265.241 132.287 260.366 131.537C256.61 130.654 253.1 129.381 253.376 128.207C253.652 127.033 257.735 126.904 261.49 127.787C265.246 128.671 268.327 130.157 268.05 131.331Z" fill="#5586E0"/>
<path d="M284.826 136.705C284.435 137.846 281.935 137.379 277.158 136.15C273.508 134.899 270.141 133.285 270.532 132.145C270.923 131.004 274.999 131.279 278.648 132.53C282.298 133.781 285.217 135.564 284.826 136.705Z" fill="#5586E0"/>
<circle cx="269.5" cy="131.5" r="2.5" fill="#8FCE5D"/>
<path d="M163.734 210.295L166.981 203.755C167.076 203.566 167.221 203.407 167.401 203.295C167.581 203.184 167.788 203.125 168 203.125C168.212 203.125 168.419 203.184 168.599 203.295C168.779 203.407 168.924 203.566 169.019 203.755L172.266 210.295L179.526 211.35C179.736 211.379 179.933 211.466 180.095 211.602C180.257 211.738 180.378 211.916 180.443 212.117C180.509 212.318 180.517 212.534 180.466 212.739C180.415 212.944 180.307 213.131 180.155 213.277L174.903 218.365L176.143 225.552C176.301 226.475 175.326 227.177 174.493 226.742L168 223.347L161.506 226.742C160.674 227.179 159.699 226.475 159.858 225.551L161.098 218.364L155.845 213.276C155.694 213.129 155.587 212.943 155.536 212.738C155.486 212.533 155.494 212.318 155.559 212.118C155.625 211.917 155.745 211.739 155.907 211.604C156.068 211.468 156.265 211.381 156.474 211.351L163.734 210.295Z" fill="#F2C100" stroke="#F2C100" stroke-width="1.5" stroke-linecap="round" stroke-linejoin="round"/>
<path d="M317.89 252.158L323.302 241.258C323.46 240.943 323.702 240.678 324.002 240.492C324.302 240.307 324.647 240.208 325 240.208C325.353 240.208 325.698 240.307 325.998 240.492C326.298 240.678 326.54 240.943 326.698 241.258L332.111 252.158L344.211 253.917C344.56 253.965 344.888 254.111 345.158 254.337C345.428 254.563 345.63 254.86 345.739 255.195C345.848 255.53 345.861 255.889 345.776 256.231C345.691 256.573 345.512 256.884 345.258 257.129L336.504 265.608L338.571 277.588C338.836 279.125 337.211 280.296 335.821 279.571L325 273.913L314.177 279.571C312.79 280.298 311.165 279.125 311.429 277.585L313.496 265.606L304.742 257.127C304.49 256.882 304.311 256.571 304.227 256.23C304.143 255.888 304.156 255.53 304.265 255.196C304.374 254.862 304.575 254.565 304.845 254.339C305.114 254.113 305.442 253.968 305.79 253.919L317.89 252.158Z" fill="#F2C100" stroke="#F2C100" stroke-width="1.5" stroke-linecap="round" stroke-linejoin="round"/>
</svg>
